<?xml version="1.0" encoding="UTF-8" standalone="no"?>
<svg
   xmlns:dc="http://purl.org/dc/elements/1.1/"
   xmlns:cc="http://creativecommons.org/ns#"
   xmlns:rdf="http://www.w3.org/1999/02/22-rdf-syntax-ns#"
   xmlns:svg="http://www.w3.org/2000/svg"
   xmlns="http://www.w3.org/2000/svg"
   xmlns:sodipodi="http://sodipodi.sourceforge.net/DTD/sodipodi-0.dtd"
   xmlns:inkscape="http://www.inkscape.org/namespaces/inkscape"
   enable-background="new 3.839 -16.829 400 400"
   xml:space="preserve"
   version="1.1"
   y="0px"
   x="0px"
   viewBox="3.839 -16.829 32 32"
   id="svg2"
   inkscape:version="0.48.4 r9939"
   width="100%"
   height="100%"
   sodipodi:docname="bigsearch.svg"
   inkscape:export-filename="/home/denis/Documents/qgis/plugins/globalfinder/icons/globalfinder-128.png"
   inkscape:export-xdpi="480"
   inkscape:export-ydpi="480"><defs
     id="defs24" /><sodipodi:namedview
     pagecolor="#ffffff"
     bordercolor="#666666"
     borderopacity="1"
     objecttolerance="10"
     gridtolerance="10"
     guidetolerance="10"
     inkscape:pageopacity="0"
     inkscape:pageshadow="2"
     inkscape:window-width="1437"
     inkscape:window-height="912"
     id="namedview22"
     showgrid="false"
     inkscape:zoom="13.350176"
     inkscape:cx="2.7647018"
     inkscape:cy="6.4110352"
     inkscape:window-x="2142"
     inkscape:window-y="128"
     inkscape:window-maximized="0"
     inkscape:current-layer="svg2" /><path
     style="fill:#000000;fill-opacity:1;stroke:#000000;stroke-width:0.5;stroke-miterlimit:4;stroke-opacity:1;stroke-dasharray:none"
     inkscape:connector-curvature="0"
     id="path13"
     d="m 22.983831,-13.515704 c 0.401921,-0.231999 0.915221,-0.09456 1.147321,0.307354 0.231989,0.401735 -0.0091,0.791637 -0.307429,1.147076 l -3.665443,2.1157993 -4.91e-4,7.6862848 6.658333,-3.8433829 -0.0065,-4.2318412 c 0.002,-0.460372 0.380003,-0.844419 0.840522,-0.842354 0.460615,0.002 0.839117,0.370447 0.84253,0.840339 l -0.0019,3.2671531 3.321053,-1.9170089 c 0.401909,-0.2319935 0.924588,-0.099979 1.156685,0.3019448 0.232102,0.4019246 0.08512,0.9204907 -0.316794,1.152485 l -3.321052,1.9170074 2.830959,1.6317735 c 0.405448,0.2380639 0.535252,0.7499529 0.306701,1.1497653 -0.228413,0.3998627 -0.750098,0.5351565 -1.149915,0.3065832 L 27.6559,-4.6482502 20.997568,-0.80486691 27.655444,3.0377493 31.320889,0.92194705 c 0.401919,-0.23199906 0.915217,-0.0945666 1.147319,0.30735315 0.232097,0.4019252 0.09449,0.9150773 -0.307428,1.1470765 l -2.832713,1.6351245 3.328424,1.9187948 c 0.399904,0.2285035 0.539073,0.7349837 0.301163,1.1401971 -0.228671,0.3998791 -0.734965,0.5390542 -1.134969,0.3105855 l -3.328361,-1.9187959 -0.0019,3.2670003 c -0.0021,0.4605872 -0.370476,0.8390548 -0.840662,0.8425711 -0.460479,-0.00214 -0.839119,-0.3704457 -0.842488,-0.8404919 l 0.0032,-4.237461 -6.658069,-3.8425051 -4.36e-4,7.6862085 3.671992,2.1160714 c 0.405467,0.237949 0.535207,0.749857 0.306696,1.149773 -0.228475,0.399769 -0.750155,0.53506 -1.140492,0.301017 l -2.830826,-1.631873 -0.0023,3.839833 c -0.0022,0.460482 -0.385563,0.834999 -0.846084,0.832939 -0.460519,-0.002 -0.839215,-0.370391 -0.837059,-0.830868 l 0.0022,-3.841298 -2.832819,1.635184 c -0.401958,0.232011 -0.915266,0.09456 -1.147365,-0.307355 -0.232101,-0.401925 0.0089,-0.791845 0.307422,-1.147072 l 3.675019,-2.121328 -0.0091,-7.68068643 -5.674276,3.27475033 -0.0031,4.2374068 c -0.002,0.4604791 -0.370423,0.8389466 -0.840512,0.842408 -0.460521,-0.00201 -0.839161,-0.370297 -0.84268,-0.8403812 l 0.0019,-3.2670002 -3.320859,1.9168953 C 7.3897542,7.0480169 6.8764552,6.9105877 6.6443553,6.5086636 6.4122551,6.1067396 6.5498588,5.5935884 6.9517761,5.3615916 L 10.272635,3.4446968 7.4417405,1.8127278 C 7.0363202,1.5748864 6.9066217,1.0628243 7.1351905,0.66300355 7.373257,0.257725 7.8852515,0.12799835 8.2851976,0.35636732 L 11.95713,2.4723529 17.631407,-0.80239694 10.983243,-4.6504376 7.3082232,-2.5291092 C 6.90631,-2.2971135 6.3929015,-2.434733 6.1609097,-2.8364658 5.9288124,-3.2383897 6.0664151,-3.7515395 6.4683329,-3.983537 L 9.3011511,-5.6187232 5.9782258,-7.5281046 C 5.5727564,-7.7660518 5.4430535,-8.2781042 5.6715253,-8.6778705 5.9000311,-9.0776221 6.4161531,-9.2225024 6.8160079,-8.9940722 l 3.3284541,1.9189413 0.0018,-3.2670971 c -0.0035,-0.469989 0.370467,-0.839038 0.831043,-0.836882 0.470185,-0.0035 0.84474,0.379958 0.842583,0.840436 l -0.0031,4.2374071 6.657754,3.8424808 6.81e-4,-7.6863951 -3.672097,-2.1159998 c -0.405468,-0.237946 -0.535171,-0.749997 -0.306794,-1.14971 0.238044,-0.405465 0.750099,-0.535159 1.150101,-0.306692 l 2.830885,1.63199 -0.0075,-3.83587 c 0.01194,-0.466056 0.385515,-0.834845 0.846231,-0.832894 0.469995,-0.0035 0.839116,0.37045 0.842585,0.840438 l -0.0075,3.831819 2.831018,-1.634144 z"
     sodipodi:nodetypes="csscccccccssscccccccsssccccccccccccccccsccssscccccccssscccccccsssccscccccccccccccccccc" /><g
     id="Layer_2"
     display="none"
     style="display:none"
     transform="translate(0,-368)" /><metadata
     id="metadata20"><rdf:RDF><cc:Work><dc:format>image/svg+xml</dc:format><dc:type
           rdf:resource="http://purl.org/dc/dcmitype/StillImage" /><cc:license
           rdf:resource="http://creativecommons.org/licenses/publicdomain/" /><dc:publisher><cc:Agent
             rdf:about="http://openclipart.org/"><dc:title>Openclipart</dc:title></cc:Agent></dc:publisher><dc:title>Clipart Search for Android Now Available</dc:title><dc:date>2013-11-24T23:48:11</dc:date><dc:description>You have an Android device and you want to find the best free clipart in the world? Use the Clipart Search App (formerly Openclipart Love). http://openclipart.org/for/android You can search for clipart, do a random search, scroll infinitely through a list of clipart, and read all the details about the clipart you find! Let us know what you think about the app, and we'll be responsive. </dc:description><dc:source>http://openclipart.org/detail/189109/clipart-search-for-android-now-available-by-openclipart-189109</dc:source><dc:creator><cc:Agent><dc:title>openclipart</dc:title></cc:Agent></dc:creator><dc:subject><rdf:Bag><rdf:li>upload2openclipart</rdf:li><rdf:li>clipart search</rdf:li><rdf:li>search</rdf:li><rdf:li>android</rdf:li><rdf:li>app</rdf:li><rdf:li>seasonal</rdf:li><rdf:li>discovery</rdf:li><rdf:li>browse</rdf:li><rdf:li>image search</rdf:li></rdf:Bag></dc:subject></cc:Work><cc:License
         rdf:about="http://creativecommons.org/licenses/publicdomain/"><cc:permits
           rdf:resource="http://creativecommons.org/ns#Reproduction" /><cc:permits
           rdf:resource="http://creativecommons.org/ns#Distribution" /><cc:permits
           rdf:resource="http://creativecommons.org/ns#DerivativeWorks" /></cc:License></rdf:RDF></metadata><path
     sodipodi:type="arc"
     style="fill:#5cc400;fill-opacity:1;fill-rule:nonzero;stroke:#000000;stroke-width:12.19284821;stroke-linecap:butt;stroke-linejoin:round;stroke-miterlimit:4;stroke-opacity:1;stroke-dasharray:none;stroke-dashoffset:0"
     id="path3776"
     sodipodi:cx="278.17798"
     sodipodi:cy="112.5"
     sodipodi:rx="77.330505"
     sodipodi:ry="87.923729"
     d="m 355.50848,112.5 a 77.330505,87.923729 0 1 1 -154.66101,0 77.330505,87.923729 0 1 1 154.66101,0 z"
     transform="matrix(0.06999512,0,0,0.06150377,-0.15189055,-7.7236787)" /></svg>