<?xml version="1.0" encoding="UTF-8" standalone="no"?>
<svg
   xmlns:dc="http://purl.org/dc/elements/1.1/"
   xmlns:cc="http://creativecommons.org/ns#"
   xmlns:rdf="http://www.w3.org/1999/02/22-rdf-syntax-ns#"
   xmlns:svg="http://www.w3.org/2000/svg"
   xmlns="http://www.w3.org/2000/svg"
   xmlns:sodipodi="http://sodipodi.sourceforge.net/DTD/sodipodi-0.dtd"
   xmlns:inkscape="http://www.inkscape.org/namespaces/inkscape"
   enable-background="new 3.839 -16.829 400 400"
   xml:space="preserve"
   version="1.1"
   y="0px"
   x="0px"
   viewBox="3.839 -16.829 24 24"
   id="svg2"
   inkscape:version="0.48.4 r9939"
   width="100%"
   height="100%"
   sodipodi:docname="globalfinder.svg"
   inkscape:export-filename="/home/denis/Documents/qgis/plugins/globalfinder/icons/globalfinder-128.png"
   inkscape:export-xdpi="480"
   inkscape:export-ydpi="480"><defs
     id="defs24" /><sodipodi:namedview
     pagecolor="#ffffff"
     bordercolor="#666666"
     borderopacity="1"
     objecttolerance="10"
     gridtolerance="10"
     guidetolerance="10"
     inkscape:pageopacity="0"
     inkscape:pageshadow="2"
     inkscape:window-width="1437"
     inkscape:window-height="912"
     id="namedview22"
     showgrid="false"
     inkscape:zoom="0.834386"
     inkscape:cx="-94.620277"
     inkscape:cy="4.2835839"
     inkscape:window-x="2142"
     inkscape:window-y="128"
     inkscape:window-maximized="0"
     inkscape:current-layer="svg2" /><path
     style="fill:#000000;fill-opacity:1;stroke:#000000;stroke-width:0.5;stroke-miterlimit:4;stroke-opacity:1;stroke-dasharray:none"
     inkscape:connector-curvature="0"
     id="path13"
     d="m 18.569903,-14.311057 c 0.299514,-0.173062 0.682029,-0.07054 0.854992,0.229274 0.17288,0.299678 -0.0068,0.59053 -0.229099,0.855674 l -2.731516,1.578303 -3.66e-4,5.7336671 4.961841,-2.867013 -0.0048,-3.1567871 c 0.0015,-0.34342 0.283181,-0.629904 0.626363,-0.628364 0.343254,0.0015 0.625317,0.27634 0.62786,0.62686 l -0.0014,2.4371685 2.474874,-1.4300135 c 0.299506,-0.173058 0.68901,-0.07458 0.861971,0.225239 0.172964,0.29982 0.06343,0.68665 -0.236077,0.8597087 l -2.474874,1.4300123 2.109653,1.2172391 c 0.302142,0.1775863 0.398873,0.5594354 0.228555,0.8576798 -0.170215,0.2982819 -0.558979,0.3992058 -0.856925,0.228699 l -2.729342,-1.5825741 -4.96184,2.8670132 4.9615,2.866441 2.731518,-1.5783055 c 0.299513,-0.1730622 0.682027,-0.070543 0.854991,0.2292734 0.172961,0.2998204 0.07041,0.6826118 -0.229098,0.8556741 l -2.110959,1.2197387 2.480367,1.43134583 c 0.298011,0.17045459 0.401721,0.54826892 0.224429,0.85054227 -0.170407,0.2982941 -0.547702,0.4021133 -0.845788,0.2316846 l -2.480369,-1.43134648 -0.0014,2.43705368 c -0.0016,0.34358 -0.276082,0.6259021 -0.626468,0.6285255 -0.343152,-0.00164 -0.625318,-0.2763385 -0.627829,-0.6269739 l 0.0024,-3.16098004 -4.961644,-2.86635806 -3.25e-4,5.7336102 2.736397,1.5785069 c 0.302157,0.1774994 0.39884,0.5593638 0.228552,0.8576849 -0.170262,0.2982122 -0.559022,0.3991337 -0.849904,0.224547 L 16.46659,3.4340804 16.46489,6.298445 C 16.46329,6.6419457 16.177565,6.9213213 15.834381,6.9197846 15.491199,6.9182546 15.208992,6.643487 15.210598,6.2999885 l 0.0016,-2.8654569 -2.111038,1.2197838 c -0.299543,0.1730708 -0.682064,0.070544 -0.855026,-0.2292756 -0.172963,-0.2998195 0.0066,-0.590685 0.229093,-0.8556709 l 2.738652,-1.582427 -0.0068,-5.7294909 -4.228514,2.4428354 -0.0023,3.1609393 C 10.974741,2.2047245 10.700222,2.4870466 10.349908,2.4896293 10.006725,2.4880945 9.7245591,2.2134024 9.7219366,1.8627376 l 0.00143,-2.43705399 -2.4747293,1.42992865 C 6.9490766,1.0286724 6.5665623,0.92615556 6.3935996,0.62633599 6.2206368,0.32651639 6.3231801,-0.05627418 6.622692,-0.22933466 L 9.0974213,-1.6592631 6.9878172,-2.876648 C 6.6856949,-3.0540683 6.5890426,-3.4360466 6.7593738,-3.7342972 6.9367828,-4.0366191 7.318325,-4.1333901 7.6163679,-3.9630358 l 2.7363521,1.5784423 4.228515,-2.442835 -4.9542628,-2.8704874 -2.7386531,1.5824277 C 6.5888103,-5.9424284 6.2062143,-6.045087 6.0333323,-6.3447641 5.8603715,-6.6445836 5.962914,-7.0273732 6.2624264,-7.2004343 L 8.3734643,-8.420219 5.8971948,-9.8445427 C 5.5950359,-10.022042 5.4983803,-10.404013 5.6686393,-10.702223 c 0.1702842,-0.298199 0.5549023,-0.406274 0.8528771,-0.235874 l 2.4803897,1.4314549 0.00134,-2.4371259 c -0.0026,-0.350594 0.2760744,-0.62589 0.6192992,-0.624282 0.3503852,-0.0026 0.6295067,0.283434 0.6278997,0.626933 l -0.0023,3.1609393 4.961409,2.86634 5.07e-4,-5.7337493 -2.736475,-1.578453 c -0.302157,-0.177498 -0.398813,-0.559468 -0.228625,-0.857639 0.177392,-0.30246 0.55898,-0.399207 0.857064,-0.22878 l 2.109597,1.217401 -0.0056,-2.861409 c 0.0089,-0.347659 0.287289,-0.622762 0.630618,-0.621306 0.350244,-0.0026 0.625316,0.276341 0.627901,0.626934 l -0.0056,2.858387 2.109696,-1.219008 z"
     sodipodi:nodetypes="csscccccccssscccccccsssccccccccccccccccsccssscccccccssscccccccsssccscccccccccccccccccc" /><g
     id="Layer_2"
     display="none"
     style="display:none"
     transform="translate(0,-376)" /><metadata
     id="metadata20"><rdf:RDF><cc:Work><dc:format>image/svg+xml</dc:format><dc:type
           rdf:resource="http://purl.org/dc/dcmitype/StillImage" /><cc:license
           rdf:resource="http://creativecommons.org/licenses/publicdomain/" /><dc:publisher><cc:Agent
             rdf:about="http://openclipart.org/"><dc:title>Openclipart</dc:title></cc:Agent></dc:publisher><dc:title>Clipart Search for Android Now Available</dc:title><dc:date>2013-11-24T23:48:11</dc:date><dc:description>You have an Android device and you want to find the best free clipart in the world? Use the Clipart Search App (formerly Openclipart Love). http://openclipart.org/for/android You can search for clipart, do a random search, scroll infinitely through a list of clipart, and read all the details about the clipart you find! Let us know what you think about the app, and we'll be responsive. </dc:description><dc:source>http://openclipart.org/detail/189109/clipart-search-for-android-now-available-by-openclipart-189109</dc:source><dc:creator><cc:Agent><dc:title>openclipart</dc:title></cc:Agent></dc:creator><dc:subject><rdf:Bag><rdf:li>upload2openclipart</rdf:li><rdf:li>clipart search</rdf:li><rdf:li>search</rdf:li><rdf:li>android</rdf:li><rdf:li>app</rdf:li><rdf:li>seasonal</rdf:li><rdf:li>discovery</rdf:li><rdf:li>browse</rdf:li><rdf:li>image search</rdf:li></rdf:Bag></dc:subject></cc:Work><cc:License
         rdf:about="http://creativecommons.org/licenses/publicdomain/"><cc:permits
           rdf:resource="http://creativecommons.org/ns#Reproduction" /><cc:permits
           rdf:resource="http://creativecommons.org/ns#Distribution" /><cc:permits
           rdf:resource="http://creativecommons.org/ns#DerivativeWorks" /></cc:License></rdf:RDF></metadata><path
     sodipodi:type="arc"
     style="fill:#5cc400;fill-opacity:1;fill-rule:nonzero;stroke:#000000;stroke-width:16.35341644;stroke-linecap:butt;stroke-linejoin:round;stroke-miterlimit:4;stroke-opacity:1;stroke-dasharray:none;stroke-dashoffset:0"
     id="path3776"
     sodipodi:cx="278.17798"
     sodipodi:cy="112.5"
     sodipodi:rx="77.330505"
     sodipodi:ry="87.923729"
     d="m 355.50848,112.5 a 77.330505,87.923729 0 1 1 -154.66101,0 77.330505,87.923729 0 1 1 154.66101,0 z"
     transform="matrix(0.0521609,0,0,0.0458794,1.3289851,-9.9904332)" /></svg>